<svg width="100" height="100" viewBox="0 0 100 100" fill="none" xmlns="http://www.w3.org/2000/svg">
<path d="M33.3547 3.21148C32.8854 3.68078 32.4713 4.34332 32.1217 5.1991C31.6892 4.88623 31.0911 4.49055 30.6034 4.2605C31.6248 3.8188 32.1953 3.59796 33.3547 3.21148ZM30.5665 3.93843C31.8272 3.42312 31.8548 3.41392 32.5082 3.16547C33.8516 2.67776 33.8792 2.66856 34.5786 2.43851C34.2105 2.55814 33.8608 2.75138 33.548 3.03664C32.3609 3.44153 31.7076 3.68077 30.4469 4.22369C30.2445 4.22369 29.9684 4.20529 29.7844 4.2789L30.5665 3.93843ZM30.4745 4.32491C30.9898 4.53656 31.6524 4.89543 32.1217 5.1991C30.907 5.2267 29.2783 5.35553 28.082 5.54877C28.9194 5.07027 29.4071 4.81261 30.4745 4.32491ZM26.6649 5.78802C27.5422 5.33406 28.2016 5.00279 28.6433 4.79421L29.5359 4.38012C29.7568 4.34331 30.0604 4.2697 30.2813 4.2881C29.1863 4.79421 28.6157 5.07947 27.5851 5.6684C26.6833 5.99046 25.4871 6.46896 24.6313 6.91066C25.2294 6.57018 26.0392 6.11009 26.6557 5.77882M27.9716 5.61318C29.2047 5.41074 30.8702 5.2359 32.1217 5.1991C30.3273 5.62239 27.944 6.27572 26.1956 6.85544C27.217 6.01807 27.9716 5.61318 27.9716 5.61318ZM19.0733 10.7203C20.3493 9.75712 21.3401 9.03324 22.0455 8.5486C22.7357 8.09771 23.6651 7.50878 24.3644 7.07629C25.2754 6.6254 26.5085 6.07328 27.4747 5.74201C26.5913 6.28493 26.1588 6.57939 25.4687 7.14991C22.0547 8.76945 20.3432 9.57922 17.2789 12.2018C17.8127 11.7601 18.5212 11.1436 19.0733 10.7203ZM26.122 6.92906C27.898 6.33093 30.2997 5.64079 32.1217 5.2083C30.0236 5.98126 27.2538 7.1131 25.2202 8.0425C25.5699 7.34315 26.122 6.92906 26.122 6.92906ZM11.8958 17.6401C12.8804 16.5451 14.2147 15.0912 15.2545 14.0514L16.8096 12.6159C19.7727 10.2234 21.2634 9.0271 25.3951 7.22352C24.8429 7.73883 24.6037 8.00569 24.3736 8.47499C18.5304 11.8797 15.825 13.7293 10.5615 19.6921C10.9296 18.956 11.1597 18.5143 11.8958 17.6401ZM10.1566 19.821L11.1781 18.5143C10.4419 19.4989 10.3315 19.6553 10.0002 20.3915C7.22122 24.2103 5.95136 25.9587 3.71528 31.1578C5.43605 27.3298 6.79793 24.3023 10.1566 19.8302M25.2018 8.08851C27.2446 7.14991 30.0144 5.98126 32.1217 5.1991C30.0696 6.22051 27.3643 7.66522 25.3951 8.83386C25.165 8.61302 25.1006 8.46578 25.2018 8.0793M10.4971 19.867C15.2269 14.5667 17.6194 12.4318 24.346 8.5302C24.2448 8.92588 24.2632 9.10992 24.5577 9.37678C18.8617 13.5084 16.2299 15.6985 11.132 22.4251C9.9726 21.3117 10.2303 20.3455 10.4879 19.867M1.93011 36.3293L1.94851 36.2556L2.90551 33.2834C4.49745 29.3082 6.00657 25.563 9.9358 20.5663C9.62293 21.8086 9.67814 22.3607 10.5983 23.2073C6.90836 29.0413 5.29802 31.9951 3.03434 39.9272C2.19696 39.1266 1.4056 38.3629 1.93011 36.3385M0.466999 56.7208C0.338172 55.3957 0.135731 53.6381 0.062115 52.313C0.0253073 47.1507 0.0253068 47.0495 0.347375 44.1969C0.678644 42.1081 1.18475 39.3383 1.66325 37.2771C1.47001 38.5745 1.31358 39.5959 2.80429 40.829C1.38719 48.0893 1.11114 51.3744 1.95771 59.1501C0.99151 58.2207 0.669442 57.9078 0.457797 56.7208M7.68132 76.6062C5.11398 72.134 4.91154 71.7659 3.57726 68.5268C1.78288 63.429 1.74607 63.337 1.12034 60.4752L0.60503 57.7238C1.03752 59.0857 1.04672 59.1409 2.10494 60.0887C3.49444 66.8889 4.47904 70.3856 8.68433 77.6644C8.37147 77.3607 7.92057 76.9742 7.68132 76.6154M8.23344 77.4619C8.50949 77.7656 8.86837 78.1889 9.19044 78.4465C11.9326 82.293 14.3067 85.6057 19.8647 89.8754C15.8526 86.5995 12.678 84.0137 8.22423 77.4619M25.4227 8.87067C27.3919 7.70202 30.0696 6.22971 32.1125 5.2083C30.4193 6.32173 28.2108 7.89526 26.6097 9.14673C26.03 9.10992 25.7539 9.06391 25.4135 8.87067M11.2609 22.5171C15.8066 16.5543 18.1071 14.1066 24.6037 9.41358C24.9626 9.60683 25.2202 9.68044 25.9472 9.71725C21.3554 14.1158 19.2574 16.4347 15.3189 23.4465C13.3313 23.3269 12.4203 23.1705 11.2609 22.5171ZM3.22758 40.056C5.13238 33.4491 6.27342 30.302 10.7272 23.2901C11.8406 23.8882 12.6412 24.1275 14.914 24.2471C12.1259 30.302 10.9388 33.357 9.4849 41.4823C6.42066 41.2983 5.02196 41.0591 3.22758 40.056ZM2.19696 59.3157C1.47921 52.3774 1.49762 48.5586 3.00673 40.967C4.69989 41.878 5.91455 42.2369 9.35607 42.4117C8.57391 50.0125 8.64752 53.8406 9.73335 61.0365C6.05258 60.8156 4.35942 60.5304 2.19696 59.3157ZM8.92358 77.8208C5.27961 71.4071 3.89932 68.1496 2.3442 60.2451C4.36862 61.3309 5.81333 61.7542 9.91739 61.9751C11.5093 68.8213 12.5491 72.3365 16.5612 79.56C12.4111 79.3207 9.84378 78.7318 8.92358 77.8208ZM21.9351 91.3477L21.6407 91.1452C16.46 87.2528 13.9018 85.0351 9.42969 78.6214C11.4633 79.7164 12.9172 80.1397 17.0305 80.3605C20.6929 85.7805 22.6161 88.265 28.4225 92.82C26.3981 92.7004 23.8767 92.5531 21.9351 91.3569M41.2684 99.1877C39.4464 98.8012 37.0355 98.2215 35.2411 97.7246C29.9684 95.8842 28.2108 95.2033 22.7817 91.8998C24.5393 92.7832 25.7631 93.1236 29.0942 93.2801C34.1093 96.4915 36.6398 97.8442 43.348 99.3625C42.7223 99.3257 41.8941 99.2797 41.2776 99.1785M45.0688 99.7122L42.299 99.3533C42.8419 99.4086 43.5597 99.473 44.1026 99.5006C45.4093 99.657 47.1484 99.8595 48.4551 99.9331C47.4337 99.8779 46.0718 99.8226 45.0596 99.7122M26.7017 9.13753C28.2753 7.89526 30.4469 6.31253 32.1217 5.1991C31.045 6.26652 29.674 7.74803 28.7078 8.91668C27.852 9.06391 27.4195 9.11912 26.7017 9.12832M15.6042 23.4465C19.0641 17.2536 20.8493 14.6955 26.0392 9.71725C26.7845 9.70805 27.2354 9.66204 28.3029 9.478C25.5883 13.6833 24.3736 15.9194 22.432 22.7196C19.5242 23.2349 18.0519 23.4189 15.6042 23.4465ZM9.91739 41.4915C11.1136 34.7373 11.8774 31.4982 15.1993 24.2563C17.5182 24.2195 18.9261 24.0999 22.2388 23.5018C20.9873 29.4002 20.5088 32.3816 20.4444 40.3689C15.9539 41.1603 13.6902 41.4455 9.91739 41.4915ZM10.2579 61.0457C9.23645 54.1534 8.93278 50.7579 9.79777 42.4209C13.3129 42.3565 15.4478 42.1817 20.4628 41.2799C20.7849 48.2366 21.199 52.0646 22.9289 59.693C17.5274 60.6408 14.8036 60.9905 10.2579 61.0457ZM17.0857 79.5784C13.6166 73.2014 12.2455 69.944 10.4327 61.9935C14.6196 61.9199 17.1685 61.7082 23.159 60.6316C25.0822 67.4502 26.2324 70.947 29.9132 78.2073C24.4381 79.1735 21.6775 79.5232 17.0765 79.5784M28.8734 92.82C23.7847 88.7251 21.6775 86.5903 17.555 80.3605C21.7603 80.2869 24.3276 80.0661 30.3457 78.9895C33.6216 84.5474 35.5448 87.2988 39.8421 91.6421C31.3395 93.142 28.8918 92.82 28.8734 92.82ZM43.6517 99.381C38.1305 98.0651 35.4896 97.2001 29.5359 93.2985C33.0971 93.2341 35.2779 93.05 40.3666 92.139C44.2774 95.4609 46.219 96.878 51.1237 98.5804C45.6025 99.5558 43.8265 99.3994 43.6425 99.381M59.2582 99.1049C57.1601 99.4638 57.0773 99.4822 55.8719 99.6202C53.2953 99.8687 53.0837 99.8963 51.4181 99.9423H49.2373C47.7834 99.8595 45.851 99.7122 44.4063 99.5098C46.7988 99.473 48.2619 99.3442 51.685 98.7276C54.6664 99.3349 56.0283 99.6018 59.4238 99.0589L59.2582 99.0865M28.8274 8.89828C29.7568 7.73883 31.0726 6.25732 32.1217 5.1991C31.8732 6.08248 31.6064 7.27874 31.4499 8.18973C30.3825 8.5302 29.858 8.67743 28.8274 8.89828ZM22.8369 22.6368C24.4933 16.6463 25.4319 14.1802 28.4317 9.45039C29.4807 9.22034 30.088 9.07311 31.3855 8.64982C31.1279 12.257 31.1463 14.5483 31.7628 20.2259C28.128 21.3853 26.3337 21.8914 22.8369 22.6368ZM21.0701 40.2401C21.0885 33.5043 21.3278 29.9523 22.6529 23.4189C25.9196 22.7104 27.806 22.2319 31.8548 20.9344C32.637 26.382 33.1983 29.5566 34.8362 36.5317C29.3243 38.2893 26.4165 39.1082 21.0701 40.2493M23.6835 59.5366C22.11 52.5891 21.4842 48.7611 21.0977 41.1511C26.0576 40.0837 28.9102 39.3567 35.0479 37.3875C36.741 43.9761 37.7809 47.6384 40.247 55.0644C33.502 57.2085 30.1709 58.1563 23.6835 59.5366ZM30.6862 78.0509C27.3643 71.3702 25.9748 67.7631 23.9227 60.4752C29.8396 59.2053 33.2351 58.3311 40.5598 55.9846C43.1824 63.383 44.6639 67.1558 47.4613 73.5235C40.6335 75.6952 37.2472 76.6522 30.677 78.0509M40.4954 91.5225C36.649 87.5105 34.6522 84.9891 31.1095 78.8514C37.0539 77.5724 40.4678 76.6982 47.8294 74.3425C50.5164 80.0569 51.9795 82.9279 54.8413 87.6577C49.0072 89.5165 46.1178 90.3354 40.4954 91.5317M51.5746 98.4884C47.5717 97.0069 45.6301 96.0591 41.0107 92.0102C46.0442 90.9244 48.9428 90.1882 55.1817 88.1822C57.6847 91.955 59.0005 93.6758 61.3562 95.8474C54.2339 98.1111 51.5838 98.4884 51.5746 98.4884ZM65.4143 97.5222C63.9604 97.9731 63.5739 98.0835 62.0004 98.4976C61.3286 98.654 60.436 98.8564 59.7643 98.9945C56.9485 99.3441 55.6602 99.5098 52.1175 98.6448C55.5038 97.9178 57.4454 97.4209 61.6323 96.0775C62.9574 97.0069 64.218 97.881 65.6811 97.4393L65.4143 97.5222ZM31.588 8.14372C31.7076 7.25113 31.91 6.07328 32.1125 5.1991C32.7934 5.72361 33.6768 6.47817 34.3117 7.06709C33.3087 7.50878 32.7382 7.73883 31.588 8.14372ZM32.2597 20.0694C31.5972 14.9716 31.3947 12.4686 31.5604 8.60381C32.7382 8.18973 33.3823 7.95048 34.6246 7.38916C36.9803 9.9749 38.379 11.7233 41.5353 16.4071C38.1029 17.9254 36.1889 18.7075 32.2597 20.0694ZM35.5908 36.274C34.0357 29.9707 33.3179 26.6764 32.3609 20.7596C36.0417 19.4713 38.0385 18.7075 41.9125 16.9868C44.8388 21.597 46.4859 24.3483 49.8814 30.6241C44.5903 32.9613 41.6365 34.1668 35.5816 36.2648M41.158 54.7699C38.8851 48.0065 37.7349 44.3257 35.8116 37.139C41.3972 35.1882 44.4247 34.038 50.3047 31.4246C53.4426 37.4519 55.1265 40.8566 58.3656 47.9881C51.9979 50.8039 48.4367 52.2486 41.158 54.7792M48.3815 73.2198C45.4369 66.438 44.0198 62.8308 41.4708 55.6809C48.133 53.3528 51.7494 51.9726 58.7613 48.8623C61.8991 56.0582 63.4175 59.8126 65.8192 66.3368C59.3686 69.1894 55.7615 70.6525 48.3907 73.2106M55.6234 87.3816C53.0745 83.0107 51.6574 80.3421 48.7404 74.0204C55.4302 71.6831 59.0649 70.2936 66.1136 67.165C68.1841 73.1278 69.1595 76.1829 70.5214 81.5016C65.0094 83.9401 61.9268 85.1916 55.6234 87.3816ZM61.8899 95.6726C59.8287 93.6113 58.6233 92.139 55.9547 87.9337C61.6231 85.9553 64.7057 84.7775 70.6686 82.1273C71.6348 86.4982 71.9845 88.5963 72.0489 91.6697C68.2853 93.3353 66.1873 94.1911 61.8899 95.6818M69.4355 96.0315C68.5767 96.3811 67.9295 96.6388 67.4939 96.8044C67.0338 96.97 66.4081 97.1909 65.9388 97.3565C64.9634 97.4762 64.126 97.5866 62.1568 95.9118C65.9664 94.5775 68.0368 93.7954 72.0489 92.0102C71.9017 93.5193 71.7636 94.9456 70.687 95.4885C70.3097 95.6542 69.8128 95.875 69.4355 96.0406M34.4406 7.01188C33.7688 6.44136 32.8394 5.7052 32.1125 5.1991C33.5204 5.30032 35.3884 5.52116 36.7779 5.77882C35.9589 6.25732 35.4896 6.51497 34.4406 7.01188ZM41.9769 16.2046C39.0047 12.0269 37.4772 10.0485 34.7718 7.32474C35.8485 6.81864 36.4098 6.53338 37.4128 5.93525C41.9493 7.31554 44.2038 8.19893 49.955 12.0085C47.176 13.6465 45.5565 14.5207 41.9769 16.2046ZM50.5716 30.3204C47.3969 24.6612 45.6853 21.7626 42.3726 16.7843C45.7221 15.2016 47.4613 14.309 50.59 12.4594C55.3658 16.1034 57.9423 18.3671 62.8746 23.8514C58.5864 26.3728 56.0835 27.7254 50.5808 30.3296M59.1938 47.6016C56.2031 41.1327 54.5192 37.6635 51.004 31.1026C56.0835 28.7009 58.7245 27.3482 63.4727 24.5416C67.8528 29.9155 70.0981 33.035 73.9997 39.8076C68.8374 42.8442 65.8284 44.473 59.1938 47.6016ZM66.6565 65.9595C64.1076 59.0212 62.6537 55.4325 59.5895 48.485C65.6443 45.614 68.8006 44.0037 74.4598 40.6542C78.0393 47.62 79.5853 51.3652 81.6465 58.0642C76.4198 61.1377 73.374 62.794 66.6473 65.9595M71.2391 81.1795C70.0337 76.2749 69.2055 73.3671 66.951 66.7877C73.0335 63.9075 76.2082 62.2787 81.895 58.92C83.4317 65.1589 83.993 68.4348 84.0574 74.4253C79.5945 77.0478 76.9811 78.4649 71.2391 81.1703M72.5458 91.4397C72.5642 88.5595 72.3894 86.6731 71.3863 81.796C76.5394 79.3575 79.2264 77.9772 84.0482 75.1338C83.6893 80.1121 83.3673 82.4126 81.2968 86.8387C78.251 88.6331 76.475 89.5993 72.555 91.4397M75.4812 92.9764C74.5303 93.5224 73.8126 93.9242 73.328 94.1819C72.4507 94.6358 71.7882 94.9671 71.3403 95.1757L70.917 95.3781C71.6624 94.8168 72.3065 94.3383 72.5182 91.7894C75.9781 90.1514 77.7909 89.222 81.0208 87.308C79.4012 89.7833 78.7387 90.8139 75.9229 92.7095L75.4812 92.9764ZM36.8883 5.7144C35.462 5.49356 33.5572 5.27271 32.1217 5.1991C34.0541 4.90463 36.6398 4.60097 38.5906 4.47214C37.6336 5.29112 36.8975 5.7052 36.8883 5.7052M50.3139 11.7877C45.1148 8.50259 42.8143 7.32474 37.5324 5.86164C38.3882 5.31872 38.8023 5.02426 39.4464 4.46294C45.6117 4.67458 48.6392 4.99665 56.1111 7.564C54.3076 9.10992 53.1665 9.98411 50.3139 11.7785M63.4267 23.511C58.8625 18.5879 56.2952 16.1402 50.958 12.2386C53.6174 10.5454 54.9149 9.63443 56.9301 7.89527C62.9666 10.5178 65.856 11.9809 72.3617 17.0144C69.5828 19.4069 67.816 20.7412 63.4175 23.5202M74.6622 39.3935C71.0551 33.2466 68.9018 30.0259 64.0248 24.1919C68.0552 21.6338 70.0337 20.2443 73.0887 17.5941C78.6375 22.554 80.9288 24.9833 85.4285 31.5627C82.0882 34.4337 79.9533 36.0532 74.6622 39.3935ZM82.3274 57.6502C80.119 50.5371 78.6375 46.9575 75.1315 40.2493C79.9441 37.1942 82.2998 35.5471 85.9438 32.3816C89.4774 38.4733 91.1245 41.7492 93.2317 49.7181C89.8454 52.6351 87.683 54.2638 82.3274 57.6502ZM84.6371 74.0756C84.5911 68.5637 84.2691 65.3798 82.5667 58.5059C87.3977 55.4325 89.7718 53.7761 93.4342 50.6015C94.566 57.006 94.8973 60.1071 93.9587 67.2938C91.0601 69.7875 89.2197 71.1862 84.6371 74.0756ZM81.6833 86.5995C83.4501 82.8359 84.1586 80.8482 84.6095 74.7934C88.7044 72.1892 90.7104 70.7905 93.8115 68.0944C92.5048 73.7628 91.6674 76.4313 88.0326 81.9801C86.0542 83.6824 84.8028 84.6302 81.6741 86.6087M80.9196 89.2496C79.0424 90.6759 79.0055 90.6943 77.9473 91.4213C77.432 91.7525 76.7511 92.2034 76.2266 92.5255C78.5086 90.8692 79.4564 90.179 81.4073 87.078C84.1586 85.3296 85.5113 84.391 87.591 82.5782C86.4683 83.9401 84.8948 85.6885 83.6525 86.9399C82.8428 87.6485 81.7661 88.5963 80.9196 89.2588M38.655 4.41693C36.6858 4.57336 34.0633 4.87703 32.1217 5.1991C34.3025 4.56416 37.238 3.8004 39.4648 3.3219C39.1888 4.00284 38.6642 4.40773 38.6642 4.40773M56.332 7.36155C49.633 5.18069 46.6147 4.52735 39.52 4.39853C40.0353 3.89242 40.247 3.62556 40.4218 3.17467C47.4797 2.33729 51.3629 2.28208 59.0742 3.65317C58.5496 4.92304 58.0619 5.6776 56.332 7.37075M72.7206 16.6831C67.2455 12.5606 64.4941 10.7203 57.1786 7.67442C58.7797 6.09168 59.4422 5.27271 60.0035 3.84641C66.6749 5.62238 69.868 6.68981 76.9535 10.9595C76.1529 12.9195 75.3892 14.079 72.7206 16.6923M85.8426 31.1854C81.8582 25.4618 79.7509 22.784 73.4384 17.2812C75.8677 14.8795 76.8799 13.6465 77.7265 11.4748C83.7353 15.8273 86.1923 18.0358 90.9313 24.2931C89.9651 26.658 89.0541 28.0475 85.8426 31.1946M93.655 49.3316C91.7686 42.3289 90.5172 39.0254 86.3671 31.9951C89.2657 29.1333 90.4712 27.6518 91.4834 25.0661C95.155 30.9737 96.8481 34.1852 98.8173 42.3381C97.8419 44.7306 96.9125 46.1477 93.655 49.3224M94.3176 66.9625C95.1365 60.5304 95.1826 57.5581 93.8575 50.215C96.7653 47.3348 97.98 45.8533 99.0014 43.2491C99.9492 49.9021 100.17 53.1504 98.7345 60.9813C97.8971 63.0241 97.1058 64.2387 94.3268 66.9533M96.2776 68.8305C94.3636 73.0818 93.4894 75.0234 90.2687 79.5876C89.3853 80.6734 89.2749 80.8114 88.2903 81.75C91.3177 77.057 92.6152 74.6369 94.1795 67.7631C96.6457 65.3246 97.6763 64.0639 98.5321 61.8646L97.8511 64.3768C97.391 65.7203 96.8297 67.5238 96.2776 68.8305ZM84.7384 85.9185L84.1218 86.4982C85.2813 85.302 86.7812 83.6456 87.8394 82.3482C88.9897 81.2163 89.0817 81.1243 89.643 80.4066C87.3701 83.1947 86.7628 83.9401 84.7384 85.9185ZM39.474 3.27589C37.2472 3.7728 34.3025 4.53656 32.1217 5.1991C34.2105 4.33411 37.0355 3.27589 39.1796 2.56734C39.4464 2.76978 39.5292 2.90781 39.474 3.27589ZM59.1202 3.47833C51.7218 2.26368 48.3723 2.06123 40.4402 3.11026C40.4862 2.73298 40.4402 2.55814 40.109 2.31889C46.7988 0.818972 50.0931 0.322068 58.1263 1.07663C59.0373 1.76677 59.3226 2.23607 59.1294 3.48753M77.0179 10.7019C71.0919 7.21432 68.092 5.7052 60.0404 3.67157C60.1968 2.53053 60.1508 2.01522 59.0097 1.19625C65.4787 2.41091 68.5706 3.22988 75.472 6.99347C76.9443 8.10691 77.3216 8.73264 77.0087 10.7019M80.0638 10.0485C85.0328 14.0882 86.3671 15.3396 90.4988 20.6768C91.0969 21.781 91.4006 22.3423 91.0233 23.9803C86.8364 18.5419 84.6095 16.0298 77.8001 11.208C78.0393 9.4688 77.9657 8.69583 76.2358 7.44437L76.5946 7.66522C77.6345 8.37377 79.0608 9.26635 80.0546 10.0485M96.4064 31.443C96.9677 33.0258 97.7223 35.133 98.1916 36.7525L98.983 40.0653C99.0198 40.6542 98.9922 41.4547 98.8909 42.0345C97.1058 34.8846 95.8635 31.5627 91.557 24.7624C91.7502 23.3453 91.8515 22.6368 91.0785 21.5049C93.4802 25.2869 94.8053 27.3758 96.4064 31.443ZM99.7283 44.8871C100.05 50.0678 100.06 50.169 99.894 53.0308C99.6639 55.3037 99.2498 58.3219 98.8449 60.5672L98.8081 60.7236C100.032 53.7301 100.225 50.5463 99.0842 42.9455C99.1578 42.3841 99.2314 41.6204 99.1854 41.0499L99.7283 44.8779M98.486 62.0855L98.6057 61.607L98.6241 61.5426L98.4953 62.0855M39.1336 2.54894C36.9987 3.26669 34.1921 4.32491 32.1125 5.1991C33.7964 4.2697 36.0877 3.10105 37.8545 2.31889C38.471 2.33729 38.7471 2.3741 39.1336 2.53973M54.9241 0.257654L55.4302 0.312866C56.3688 0.450895 57.1694 0.579722 57.9791 0.993809C50.6912 0.386481 47.0012 0.653338 40.0629 2.29128C39.6673 2.11645 39.382 2.05203 38.6182 2.03363C42.8419 0.708549 44.5903 0.165635 49.9918 0.00920173C51.4734 0.0460095 53.4426 0.119625 54.9241 0.257654ZM64.7517 2.24527C68.1933 3.44766 71.5336 4.89236 74.7727 6.57939C69.6104 3.89242 66.5553 2.42931 58.8717 1.11343C58.0343 0.745357 57.8043 0.66254 56.4608 0.432491C59.4698 0.929396 61.8347 1.31588 64.7517 2.24527ZM37.7717 2.32809C36.0417 3.11946 33.7688 4.2605 32.1217 5.2083C33.1523 4.36172 34.5786 3.3035 35.7012 2.59495C36.5754 2.42931 37.0171 2.3649 37.7717 2.33729M40.7347 0.874184C42.8327 0.515308 42.9156 0.496905 44.121 0.358876C46.6975 0.110423 46.9092 0.082817 48.5747 0.0368073L49.2373 0.0184039C45.1608 0.276058 43.302 0.395683 38.5262 2.04283C37.7533 2.07964 37.284 2.12565 36.1981 2.33729C37.284 1.8864 38.7655 1.35268 39.8973 1.03982L40.7439 0.874184M33.3455 3.22068C34.0541 2.99983 34.6614 2.80659 35.5816 2.61335C34.4958 3.3219 33.1063 4.36172 32.1217 5.1991C32.4713 4.34332 32.8854 3.68998 33.3547 3.22068M34.5786 2.44772C36.0325 1.99682 36.419 1.8864 37.9925 1.47231C38.4618 1.36189 39.0875 1.21466 39.5568 1.11343C38.4894 1.4263 37.0723 1.914 36.0601 2.3649C35.3608 2.52133 34.7074 2.67776 33.548 3.05504C33.87 2.76978 34.2197 2.57654 34.5878 2.45692M34.5786 2.44772C33.5756 2.76978 32.7474 3.67157 32.1217 5.2083C32.7474 3.68078 33.5756 2.77899 34.5786 2.44772C33.6461 2.76058 32.956 3.0029 32.5082 3.17467C31.2291 3.66237 31.2107 3.67157 30.5665 3.94763C29.7138 4.31571 29.0758 4.60097 28.6525 4.80341C27.7692 5.23284 27.1066 5.56411 26.6649 5.79722C25.257 6.56098 25.2294 6.57939 24.5117 7.00268C22.9473 7.95968 22.8829 7.99649 22.0455 8.5578C20.2144 9.83687 20.1039 9.91049 19.0733 10.7295C16.9017 12.5146 16.6808 12.7079 15.2637 14.0606C12.8896 16.4991 12.3283 17.0788 10.1658 19.821C7.17521 24.0815 6.11699 25.6918 3.72449 31.1486C3.17237 32.6669 2.42701 34.7005 1.95771 36.2464C0.789068 40.9946 0.715452 41.2799 0.356577 44.1969C-0.0391066 49.2304 -0.05751 49.4328 0.0713172 52.313C0.51301 57.4293 0.531414 57.6318 1.12954 60.466C2.44542 65.5546 2.49143 65.7571 3.58646 68.5176C7.38686 77.0202 10.9572 82.6702 19.9383 89.9122C25.4411 93.731 28.5789 95.4793 35.2503 97.7246C37.9557 98.4608 41.0107 99.2981 45.078 99.7122C48.4643 99.9607 48.8232 99.9883 51.4273 99.9423C54.1511 99.8042 54.2615 99.8042 55.8811 99.6202C57.3595 99.4178 58.4883 99.246 59.2674 99.1049C60.4882 98.8595 61.4053 98.6601 62.0188 98.5068C63.3991 98.1479 63.7671 98.0467 65.4327 97.5314C66.3652 97.2185 67.0553 96.9762 67.5031 96.8044C68.3681 96.467 69.0153 96.2094 69.4447 96.0315C70.7054 95.4885 70.7238 95.4793 71.3587 95.1757C72.6286 94.5591 72.6838 94.5315 73.3464 94.1819C74.7543 93.4181 74.7819 93.3997 75.4996 92.9764C77.1008 92.001 77.1284 91.9826 77.9657 91.4213C79.7969 90.1422 79.9073 90.0686 80.938 89.2496C83.1096 87.4644 83.3305 87.2712 84.7476 85.9185C87.1217 83.48 87.683 82.9003 89.8454 80.1581C92.8361 75.8976 93.8943 74.2873 96.2868 68.8305C97.9523 64.2663 98.0536 63.9995 98.7437 61.0549C99.6731 56.1318 99.7099 55.9386 99.9032 53.0308C100.023 47.9513 100.023 47.7581 99.7375 44.8871C99.0014 39.7708 98.9738 39.5683 98.21 36.7525C97.6947 35.1514 97.0229 33.0166 96.4248 31.443C92.6244 22.9404 89.0541 17.2996 80.073 10.0485C74.5702 6.22971 71.4323 4.48134 64.7609 2.23607C62.0556 1.49992 59.0005 0.66254 54.9333 0.248452C51.547 0 51.1881 -0.0276058 48.5839 0.0184039C45.8602 0.156433 45.7497 0.156432 44.1302 0.340471C42.6518 0.542914 41.523 0.714684 40.7439 0.85578C39.5231 1.10117 38.606 1.30054 37.9925 1.45391C36.8331 1.75757 36.0693 1.96001 34.5786 2.42931" fill="white"/>
</svg>
