<svg width="24" height="24" viewBox="0 0 24 24" fill="none" xmlns="http://www.w3.org/2000/svg">
<path fill-rule="evenodd" clip-rule="evenodd" d="M12 24C18.6274 24 24 18.6274 24 12C24 5.37258 18.6274 0 12 0C5.37258 0 0 5.37258 0 12C0 18.6274 5.37258 24 12 24ZM14.2307 6.66549C15.2307 6.83882 16.1907 7.13882 17.0773 7.55216C17.0907 7.55216 17.0973 7.55882 17.104 7.56549C18.684 9.89215 19.464 12.5122 19.1707 15.5322C19.1707 15.5455 19.164 15.5588 19.1507 15.5655C17.9507 16.4455 16.7973 16.9788 15.6507 17.3322C15.6307 17.3388 15.6107 17.3322 15.5907 17.3255C15.3307 16.9588 15.0907 16.5722 14.8773 16.1655C14.8707 16.1455 14.8773 16.1122 14.904 16.1055C15.284 15.9588 15.6507 15.7922 15.9973 15.5855C16.0307 15.5722 16.0307 15.5322 16.004 15.5122C15.9673 15.4822 15.9307 15.4538 15.894 15.4255C15.8573 15.3972 15.8207 15.3688 15.784 15.3388C15.7707 15.3255 15.7507 15.3255 15.7373 15.3322C13.4707 16.3788 10.9973 16.3788 8.70401 15.3322C8.69068 15.3255 8.67068 15.3255 8.65734 15.3388C8.62068 15.3655 8.58401 15.3938 8.54734 15.4222C8.51068 15.4505 8.47401 15.4788 8.43734 15.5055C8.41734 15.5255 8.41734 15.5655 8.44401 15.5788C8.79734 15.7788 9.15734 15.9522 9.53734 16.0988C9.56401 16.1055 9.57734 16.1322 9.56401 16.1588C9.35734 16.5655 9.11734 16.9522 8.85068 17.3188C8.84401 17.3322 8.82401 17.3388 8.80401 17.3322C7.66401 16.9788 6.51067 16.4455 5.31067 15.5655C5.29734 15.5588 5.29067 15.5455 5.29067 15.5322C5.04401 12.9188 5.54401 10.2788 7.35734 7.56549C7.36401 7.55882 7.37068 7.55216 7.37734 7.55216C8.27068 7.13882 9.22401 6.83882 10.224 6.66549C10.244 6.66549 10.264 6.67215 10.2707 6.68549C10.3973 6.90549 10.5373 7.18549 10.6307 7.41215C11.6913 7.25215 12.77 7.25215 13.8307 7.41215C13.924 7.19215 14.064 6.90549 14.184 6.68549C14.1899 6.67895 14.1971 6.67376 14.2051 6.67031C14.2132 6.66685 14.2219 6.66521 14.2307 6.66549ZM8.65068 12.5255C8.65068 13.3055 9.22401 13.9388 9.91068 13.9388C10.6107 13.9388 11.1707 13.3055 11.1707 12.5255C11.1773 11.7522 10.6173 11.1122 9.91068 11.1122C9.21068 11.1122 8.65068 11.7455 8.65068 12.5255ZM13.2973 12.5255C13.2973 13.3055 13.8707 13.9388 14.5573 13.9388C15.264 13.9388 15.8173 13.3055 15.8173 12.5255C15.824 11.7522 15.264 11.1122 14.5573 11.1122C13.8573 11.1122 13.2973 11.7455 13.2973 12.5255Z" fill="white"/>
</svg>
