<svg width="24" height="24" viewBox="0 0 24 24" fill="none" xmlns="http://www.w3.org/2000/svg">
<path fill-rule="evenodd" clip-rule="evenodd" d="M12 24C18.6274 24 24 18.6274 24 12C24 5.37258 18.6274 0 12 0C5.37258 0 0 5.37258 0 12C0 18.6274 5.37258 24 12 24ZM15.0307 5.33343H9.43072C8.40522 5.33343 7.42171 5.74081 6.69657 6.46595C5.97143 7.19109 5.56405 8.17459 5.56405 9.20009V14.8001C5.56405 16.9334 7.29739 18.6668 9.43072 18.6668H15.0307C16.0562 18.6668 17.0397 18.2594 17.7649 17.5342C18.49 16.8091 18.8974 15.8256 18.8974 14.8001V9.20009C18.8974 7.06676 17.1641 5.33343 15.0307 5.33343ZM7.60033 7.3697C8.05042 6.91962 8.66087 6.66676 9.29739 6.66676H15.1641C16.4907 6.66676 17.5641 7.74009 17.5641 9.06676V14.9334C17.5641 15.5699 17.3112 16.1804 16.8611 16.6305C16.411 17.0806 15.8006 17.3334 15.1641 17.3334H9.29739C7.97072 17.3334 6.89739 16.2601 6.89739 14.9334V9.06676C6.89739 8.43024 7.15024 7.81979 7.60033 7.3697ZM16.32 7.91084C16.1637 7.75456 15.9517 7.66676 15.7307 7.66676C15.5097 7.66676 15.2977 7.75456 15.1415 7.91084C14.9852 8.06712 14.8974 8.27908 14.8974 8.50009C14.8974 8.72111 14.9852 8.93307 15.1415 9.08935C15.2977 9.24563 15.5097 9.33343 15.7307 9.33343C15.9517 9.33343 16.1637 9.24563 16.32 9.08935C16.4763 8.93307 16.5641 8.72111 16.5641 8.50009C16.5641 8.27908 16.4763 8.06712 16.32 7.91084ZM14.5877 9.64307C13.9626 9.01795 13.1148 8.66676 12.2307 8.66676C11.3467 8.66676 10.4988 9.01795 9.8737 9.64307C9.24858 10.2682 8.89739 11.116 8.89739 12.0001C8.89739 12.8841 9.24858 13.732 9.8737 14.3571C10.4988 14.9822 11.3467 15.3334 12.2307 15.3334C13.1148 15.3334 13.9626 14.9822 14.5877 14.3571C15.2129 13.732 15.5641 12.8841 15.5641 12.0001C15.5641 11.116 15.2129 10.2682 14.5877 9.64307ZM10.8165 10.5859C11.1916 10.2108 11.7003 10.0001 12.2307 10.0001C12.7612 10.0001 13.2699 10.2108 13.6449 10.5859C14.02 10.961 14.2307 11.4697 14.2307 12.0001C14.2307 12.5305 14.02 13.0392 13.6449 13.4143C13.2699 13.7894 12.7612 14.0001 12.2307 14.0001C11.7003 14.0001 11.1916 13.7894 10.8165 13.4143C10.4414 13.0392 10.2307 12.5305 10.2307 12.0001C10.2307 11.4697 10.4414 10.961 10.8165 10.5859Z" fill="white"/>
</svg>
