<svg width="24" height="24" viewBox="0 0 24 24" fill="none" xmlns="http://www.w3.org/2000/svg">
<path d="M12.2309 0.480469C5.86854 0.480469 0.710938 5.63807 0.710938 12.0005C0.710938 18.3629 5.86854 23.5205 12.2309 23.5205C18.5933 23.5205 23.7509 18.3629 23.7509 12.0005C23.7509 5.63807 18.5933 0.480469 12.2309 0.480469ZM9.41094 16.7753H7.07814V9.26807H9.41094V16.7753ZM8.23014 8.34647C7.49334 8.34647 7.01694 7.82447 7.01694 7.17887C7.01694 6.52007 7.50774 6.01367 8.26014 6.01367C9.01254 6.01367 9.47334 6.52007 9.48774 7.17887C9.48774 7.82447 9.01254 8.34647 8.23014 8.34647ZM17.9309 16.7753H15.5981V12.6149C15.5981 11.6465 15.2597 10.9889 14.4161 10.9889C13.7717 10.9889 13.3889 11.4341 13.2197 11.8625C13.1573 12.0149 13.1417 12.2309 13.1417 12.4457V16.7741H10.8077V11.6621C10.8077 10.7249 10.7777 9.94127 10.7465 9.26687H12.7733L12.8801 10.3097H12.9269C13.2341 9.82007 13.9865 9.09767 15.2453 9.09767C16.7801 9.09767 17.9309 10.1261 17.9309 12.3365V16.7753Z" fill="white"/>
</svg>
